<?xml version="1.0" encoding="UTF-8"?>
<!DOCTYPE svg PUBLIC "-//W3C//DTD SVG 1.1//EN" "http://www.w3.org/Graphics/SVG/1.1/DTD/svg11.dtd">
<!-- Creator: CorelDRAW 2020 (64-Bit) -->
<svg xmlns="http://www.w3.org/2000/svg" xml:space="preserve" width="34.2246mm" height="39.988mm" version="1.1" style="shape-rendering:geometricPrecision; text-rendering:geometricPrecision; image-rendering:optimizeQuality; fill-rule:evenodd; clip-rule:evenodd"
viewBox="0 0 876.7 1024.34"
 xmlns:xlink="http://www.w3.org/1999/xlink"
 xmlns:xodm="http://www.corel.com/coreldraw/odm/2003">
 <defs>
  <style type="text/css">
   <![CDATA[
    .fil0 {fill:#E62129}
   ]]>
  </style>
 </defs>
 <g id="图层_x0020_1">
  <metadata id="CorelCorpID_0Corel-Layer"/>
  <path class="fil0" d="M0 269.4l0 186.62c0,0 -0.3,6.05 6.95,6.05 7.26,0 320.02,0 320.02,0 0,0 54.15,9.8 54.15,66.5 0,56.71 0,490.25 0,490.25 0,0 -0.59,5.5 5.4,5.5 5.99,0 34.42,0 34.42,0 0,0 5.93,-0.55 5.93,-5.69 0,-5.14 0,-499.6 0,-499.6l249.34 -145.89c0,0 70.63,-31.57 104.5,-103.36 33.87,-71.79 26.22,-87.92 34.68,-128.65 8.47,-40.73 29.84,-96.79 61.3,-141.15l-392.01 243.19c0,0 -10.17,4.98 -14.17,14.42 -3.99,9.44 -74.89,172.65 -74.89,172.65l-253.71 -169.26c0,0 -1.81,-2.06 -6.41,-2.06 -4.6,0 -124.86,0 -126.8,0 -3.75,-0.36 -8.35,1.33 -8.72,10.46z"/>
 </g>
</svg>
