<?xml version="1.0" encoding="UTF-8"?>
<!DOCTYPE svg PUBLIC "-//W3C//DTD SVG 1.1//EN" "http://www.w3.org/Graphics/SVG/1.1/DTD/svg11.dtd">
<!-- Creator: CorelDRAW 2020 (64-Bit) -->
<svg xmlns="http://www.w3.org/2000/svg" xml:space="preserve" width="141.511mm" height="40.1308mm" version="1.1" style="shape-rendering:geometricPrecision; text-rendering:geometricPrecision; image-rendering:optimizeQuality; fill-rule:evenodd; clip-rule:evenodd"
viewBox="0 0 14988.46 4250.53"
 xmlns:xlink="http://www.w3.org/1999/xlink"
 xmlns:xodm="http://www.corel.com/coreldraw/odm/2003">
 <defs>
  <style type="text/css">
   <![CDATA[
    .fil0 {fill:#FFFFFF}
    .fil1 {fill:#FFFFFF;fill-rule:nonzero}
   ]]>
  </style>
 </defs>
 <g id="图层_x0020_1">
  <metadata id="CorelCorpID_0Corel-Layer"/>
  <path class="fil0" d="M0.01 1113.93l0 771.65c0,0 -1.26,25.03 28.76,25.03 30.02,0 1323.2,0 1323.2,0 0,0 223.9,40.5 223.9,274.98 0,234.49 0,2027.06 0,2027.06 0,0 -2.44,22.76 22.34,22.76 24.76,0 142.33,0 142.33,0 0,0 24.51,-2.26 24.51,-23.51 0,-21.26 0,-2065.72 0,-2065.72l1030.95 -603.24c0,0 292.03,-130.55 432.1,-427.36 140.06,-296.82 108.4,-363.52 143.41,-531.94 35.02,-168.42 123.39,-400.21 253.46,-583.63l-1620.86 1005.52c0,0 -42.07,20.59 -58.58,59.62 -16.5,39.02 -309.64,713.89 -309.64,713.89l-1049.05 -699.85c0,0 -7.49,-8.52 -26.5,-8.52 -19.02,0 -516.28,0 -524.28,0 -15.51,-1.5 -34.52,5.52 -36.04,43.26z"/>
  <path class="fil1" d="M2200.85 4235.41l1228.82 0 0 -300.3 -863.2 0 0 -359.27 730.91 0 0 -270.05 -730.91 0 0 -341.51 829.55 0 0 -285.17 -1195.17 0 0 1556.29zm9855.1 0l1228.82 0 0 -300.3 -863.19 0 0 -359.27 730.91 0 0 -270.05 -730.91 0 0 -341.51 829.54 0 0 -285.17 -1195.17 0 0 1556.29zm-8338.35 0l1228.81 0 0 -300.3 -863.19 0 0 -359.27 730.91 0 0 -270.05 -730.91 0 0 -341.51 829.55 0 0 -285.17 -1195.17 0 0 1556.29zm9853.97 0l360.26 0 0 -459.99 340.87 0 306.09 459.99 409.68 0 -374.83 -524.53c195.09,-72.34 321.24,-225.81 321.24,-521.03 0,-361.79 -348.13,-510.73 -661.86,-510.73l-701.44 0 0 1556.29zm360.26 -742.97l0 -523.77 312.68 0c147.54,0 318.17,36.49 318.17,261.39 0,191.72 -147.34,262.38 -311.6,262.38l-319.25 0zm-2957.82 742.97l367.81 0 0 -1270.83 489.58 0 0 -285.46 -1354.52 0 0 285.46 497.13 0 0 1270.83zm-1240.13 15.12c372.69,0 661.66,-155.85 661.66,-460.53l0 -4.38c0,-267.42 -179.43,-406.69 -592.5,-475.44 -269.98,-44.95 -330.98,-115.96 -330.98,-216.79l0 -4.38c0,-74.51 143.57,-148.83 272.91,-148.83 129.31,0 331.09,34.31 467,128.56l107.29 -269.39c-155.63,-124.94 -376.59,-142.15 -600.16,-142.15 -313.45,0 -605.09,184.19 -605.09,462.51l0 4.38c0,304.6 227.65,419.38 576.59,476.64 261.14,42.85 346.88,132.49 346.88,217.78l0 4.37c0,89.7 -159.2,146.28 -327.26,144.67 -175.3,-1.68 -366.29,-68.88 -511.06,-171.18l-123.85 269.17c195.81,136.06 426.23,185.01 658.57,185.01zm-2520.9 -15.12l386.35 0 146.09 -346.58 719.15 0 146.09 346.58 386.35 0 -710.52 -1556.29 -181.5 0 -181.5 0 -710.52 1556.29zm642.79 -608.98l249.23 -591.86 249.23 591.86 -498.47 0zm-2606.74 608.98l338.55 0 0 -911.19 480.38 747.14 84.41 0 84.39 0 480.38 -747.14 0 911.19 338.55 0 0 -1556.29 -303.37 0 -599.96 966.46 -599.97 -966.46 -303.37 0 0 1556.29z"/>
 </g>
</svg>
